<!--?xml version="1.0" standalone="no"?-->

<svg version="1.0" xmlns="http://www.w3.org/2000/svg" width="300.000000pt" height="300.000000pt" viewBox="0 0 300.000000 300.000000" preserveAspectRatio="xMidYMid meet">
<g transform="translate(0.000000,300.000000) scale(0.100000,-0.100000)" fill="#383838" stroke="none">
<path class="node" id="node1" d="M97 2763 c-4 -3 -7 -345 -7 -759 l0 -752 -45 -176 c-25 -97 -45 -189
-45 -203 0 -32 45 -100 71 -108 18 -6 19 -23 19 -386 l0 -379 1080 0 1080 0 0
373 0 374 39 31 c53 43 67 87 48 150 -17 53 -37 136 -37 151 0 6 10 11 23 11
14 -1 32 -15 49 -40 29 -42 118 -105 172 -122 17 -5 66 -9 109 -10 65 0 87 5
140 30 76 35 140 99 175 172 22 46 26 69 27 145 0 77 -4 98 -26 145 -50 103
-138 172 -248 195 -147 31 -290 -27 -367 -148 -21 -33 -29 -37 -64 -37 l-40 0
0 675 0 675 -1073 0 c-591 0 -1077 -3 -1080 -7z m221 -105 c-7 -19 -53 -21
-68 -4 -11 14 -7 16 30 16 29 0 40 -4 38 -12z m110 -4 c-11 -11 -25 -14 -42
-10 -40 10 -31 26 16 26 39 0 41 -1 26 -16z m120 4 c-3 -7 -17 -13 -33 -13
-16 0 -30 6 -32 13 -3 8 7 12 32 12 25 0 35 -4 33 -12z m122 2 c0 -12 -45 -24
-59 -15 -22 13 -10 25 24 25 19 0 35 -4 35 -10z m110 -5 c-7 -8 -23 -15 -36
-15 -15 0 -24 6 -24 15 0 11 11 15 36 15 31 0 35 -2 24 -15z m118 3 c-3 -7
-17 -13 -33 -13 -16 0 -30 6 -32 13 -3 8 7 12 32 12 25 0 35 -4 33 -12z m122
2 c0 -12 -45 -24 -59 -15 -22 13 -10 25 24 25 19 0 35 -4 35 -10z m120 0 c0
-12 -45 -24 -59 -15 -22 13 -10 25 24 25 19 0 35 -4 35 -10z m118 -2 c-3 -7
-17 -13 -33 -13 -16 0 -30 6 -32 13 -3 8 7 12 32 12 25 0 35 -4 33 -12z m112
-3 c-7 -8 -20 -15 -30 -15 -10 0 -23 7 -30 15 -11 13 -7 15 30 15 37 0 41 -2
30 -15z m118 3 c-3 -7 -17 -13 -33 -13 -16 0 -30 6 -32 13 -3 8 7 12 32 12 25
0 35 -4 33 -12z m120 0 c-3 -7 -17 -13 -33 -13 -16 0 -30 6 -32 13 -3 8 7 12
32 12 25 0 35 -4 33 -12z m120 0 c-3 -7 -17 -13 -33 -13 -16 0 -30 6 -32 13
-3 8 7 12 32 12 25 0 35 -4 33 -12z m112 3 c0 -16 -20 -23 -46 -17 -36 9 -29
26 11 26 19 0 35 -4 35 -9z m118 -3 c-3 -7 -17 -13 -33 -13 -16 0 -30 6 -32
13 -3 8 7 12 32 12 25 0 35 -4 33 -12z m120 0 c-7 -19 -53 -21 -68 -4 -11 14
-7 16 30 16 29 0 40 -4 38 -12z m82 -3 c0 -17 -2 -18 -24 -9 -23 9 -20 24 4
24 11 0 20 -7 20 -15z m-1795 -35 c15 -16 15 -22 5 -35 -7 -8 -20 -15 -30 -15
-10 0 -23 7 -30 15 -10 13 -10 19 5 35 10 11 21 20 25 20 4 0 15 -9 25 -20z
m135 -19 c0 -13 -24 -31 -41 -31 -10 0 -25 7 -33 16 -15 14 -14 17 6 34 20 16
25 16 45 3 13 -9 23 -18 23 -22z m113 -7 c-9 -23 -52 -29 -71 -10 -16 16 -15
18 7 35 22 17 27 17 47 4 13 -8 20 -21 17 -29z m102 26 c15 -16 15 -22 5 -35
-16 -19 -44 -19 -60 0 -11 13 -10 19 6 35 24 24 27 24 49 0z m135 -19 c0 -13
-24 -31 -41 -31 -10 0 -25 7 -33 16 -15 14 -14 17 6 34 20 16 25 16 45 3 13
-9 23 -18 23 -22z m120 0 c0 -30 -59 -41 -81 -15 -11 14 -9 19 11 34 22 16 26
17 47 3 13 -8 23 -18 23 -22z m113 -9 c-9 -21 -53 -26 -71 -8 -16 16 -15 18 7
35 23 18 26 18 47 3 12 -9 19 -23 17 -30z m120 2 c-9 -23 -52 -29 -71 -10 -16
16 -15 19 6 36 22 18 25 18 47 4 14 -9 21 -22 18 -30z m232 16 c9 -15 -14 -40
-36 -40 -9 0 -25 7 -33 16 -15 14 -14 17 6 34 23 18 48 14 63 -10z m125 -9 c0
-13 -24 -31 -40 -31 -9 0 -25 7 -36 15 -19 14 -18 15 5 34 23 17 27 18 48 4
13 -8 23 -18 23 -22z m100 -15 c-16 -20 -44 -20 -61 0 -11 14 -9 19 11 35 24
18 25 18 44 -1 16 -16 17 -22 6 -34z m112 34 c20 -19 21 -22 6 -36 -18 -18
-68 -12 -68 8 0 11 29 48 37 48 2 0 14 -9 25 -20z m138 -19 c0 -13 -24 -31
-41 -31 -10 0 -25 8 -34 17 -16 15 -15 18 6 34 21 15 25 15 46 2 13 -8 23 -18
23 -22z m113 -7 c-9 -23 -52 -29 -71 -10 -16 16 -15 18 7 35 22 17 27 17 47 4
13 -8 20 -21 17 -29z m102 30 c15 -11 17 -18 9 -32 -15 -23 -48 -27 -64 -7
-11 13 -10 19 5 35 21 24 24 24 50 4z m-1871 -7 c17 -13 17 -14 1 -31 -22 -21
-59 -17 -63 8 -7 32 31 46 62 23z m1056 -2 c15 -18 -2 -45 -30 -45 -10 0 -23
7 -30 15 -15 18 2 45 30 45 10 0 23 -7 30 -15z m-990 -87 c0 -26 -47 -35 -68
-14 -16 16 -15 19 6 36 19 16 27 17 43 7 10 -6 19 -20 19 -29z m240 3 c0 -32
-64 -41 -79 -12 -9 15 -6 22 12 34 19 13 24 13 44 0 13 -9 23 -18 23 -22z
m117 -5 c-7 -20 -54 -31 -71 -16 -22 18 -20 35 7 47 25 11 71 -11 64 -31z
m342 -7 c-13 -25 -55 -25 -69 0 -8 16 -6 23 11 35 19 13 24 13 45 -1 19 -12
22 -19 13 -34z m104 37 c25 -19 21 -45 -9 -52 -17 -4 -31 -1 -42 9 -14 15 -14
18 3 37 21 23 24 24 48 6z m122 -2 c15 -11 17 -18 9 -32 -15 -23 -48 -27 -64
-7 -11 13 -10 19 5 35 21 24 24 24 50 4z m120 0 c15 -11 17 -18 9 -32 -6 -9
-21 -17 -34 -17 -13 0 -28 8 -34 17 -8 14 -6 21 9 32 11 9 22 15 25 15 3 0 14
-6 25 -15z m130 -14 c9 -15 -14 -40 -36 -40 -9 0 -25 8 -34 17 -16 15 -15 18
6 34 23 17 49 13 64 -11z m115 -12 c0 -26 -47 -35 -68 -14 -16 16 -15 18 7 35
20 15 28 17 43 8 10 -7 18 -20 18 -29z m120 7 c0 -32 -48 -46 -70 -20 -10 13
-10 19 5 35 14 15 21 17 41 8 13 -6 24 -16 24 -23z m115 5 c9 -14 -13 -40 -34
-40 -10 0 -26 7 -37 15 -19 14 -18 15 6 34 24 19 50 16 65 -9z m120 0 c20 -32
-51 -54 -76 -24 -11 14 -9 19 11 34 24 18 50 14 65 -10z m115 -12 c0 -26 -47
-35 -68 -14 -16 16 -15 18 7 35 20 15 28 17 43 8 10 -7 18 -20 18 -29z m-1650
16 c11 -12 11 -18 -3 -31 -21 -21 -67 -10 -67 16 0 31 49 42 70 15z m350 1
c10 -12 10 -18 0 -30 -17 -20 -49 -16 -64 8 -20 32 39 52 64 22z m116 1 c18
-14 18 -16 2 -32 -22 -22 -68 -12 -68 15 0 31 35 39 66 17z m1264 -16 c0 -32
-1 -33 -24 -24 -19 7 -21 25 -4 42 19 19 28 14 28 -18z m-1957 -5 c-7 -21 -13
-19 -13 6 0 11 4 18 10 14 5 -3 7 -12 3 -20z m767 -64 c0 -30 -59 -41 -81 -15
-11 14 -9 19 11 34 22 16 26 17 47 3 13 -8 23 -18 23 -22z m230 -3 c0 -22 -45
-35 -65 -18 -21 18 -19 34 8 46 27 12 57 -3 57 -28z m470 7 c0 -33 -49 -46
-71 -19 -11 14 -10 19 10 35 18 15 26 16 42 6 10 -6 19 -17 19 -22z m-1416 12
c16 -12 16 -14 -3 -31 -24 -22 -54 -18 -59 8 -7 32 31 46 62 23z m116 3 c21
-13 0 -45 -30 -45 -30 0 -51 32 -30 45 8 5 22 10 30 10 8 0 22 -5 30 -10z
m115 -4 c16 -12 17 -16 6 -30 -18 -22 -58 -20 -71 3 -8 16 -6 22 7 30 24 14
36 13 58 -3z m119 1 c17 -13 17 -14 1 -30 -21 -21 -49 -22 -66 -1 -11 14 -10
18 6 30 24 17 36 18 59 1z m116 -2 c25 -30 -30 -61 -58 -33 -17 17 -15 36 6
41 31 8 39 7 52 -8z m120 5 c21 -13 1 -44 -33 -48 -34 -4 -56 32 -30 47 23 13
44 13 63 1z m234 -3 c17 -13 17 -14 1 -30 -19 -20 -46 -22 -63 -5 -17 17 -15
36 6 41 30 8 38 7 56 -6z m230 7 c23 -9 20 -41 -4 -49 -29 -9 -60 4 -60 25 0
25 31 37 64 24z m136 -10 c10 -11 -19 -39 -43 -42 -34 -4 -56 31 -30 47 16 10
61 6 73 -5z m105 2 c16 -12 17 -16 6 -30 -7 -9 -24 -16 -36 -16 -12 0 -29 7
-36 16 -11 14 -10 18 6 30 10 8 24 14 30 14 6 0 20 -6 30 -14z m229 8 c38 -15
2 -60 -39 -50 -16 4 -25 13 -25 25 0 26 30 38 64 25z m121 -8 c16 -12 17 -16
6 -30 -18 -22 -58 -20 -71 3 -8 16 -6 22 7 30 24 14 36 13 58 -3z m115 4 c12
-7 12 -13 4 -27 -15 -24 -48 -28 -64 -7 -12 14 -12 18 5 30 22 16 34 17 55 4z
m120 0 c21 -13 0 -45 -30 -45 -30 0 -51 32 -30 45 8 5 22 10 30 10 8 0 22 -5
30 -10z m-1825 -70 c9 -10 15 -26 12 -35 -8 -19 -51 -20 -67 0 -10 13 -10 19
5 35 22 25 28 25 50 0z m135 -19 c0 -32 -64 -41 -79 -12 -9 15 -6 22 12 34 19
13 24 13 44 0 13 -9 23 -18 23 -22z m120 0 c0 -30 -59 -41 -81 -15 -11 14 -9
19 11 34 22 16 26 17 47 3 13 -8 23 -18 23 -22z m109 -12 c-11 -21 -49 -25
-67 -7 -18 18 -15 32 11 44 32 14 71 -10 56 -37z m121 11 c0 -15 -30 -31 -52
-28 -29 4 -36 35 -12 53 15 11 22 10 41 -2 13 -9 23 -19 23 -23z m120 1 c0
-32 -64 -41 -79 -12 -9 15 -6 22 12 34 19 13 24 13 44 0 13 -9 23 -18 23 -22z
m120 0 c0 -30 -59 -41 -81 -15 -11 14 -9 19 11 34 22 16 26 17 47 3 13 -8 23
-18 23 -22z m108 0 c-5 -24 -36 -37 -55 -25 -26 16 -27 38 -1 49 27 13 60 -2
56 -24z m351 -12 c-12 -23 -52 -25 -70 -3 -11 14 -9 19 11 34 21 16 26 17 47
3 18 -12 21 -19 12 -34z m119 6 c-4 -26 -49 -32 -68 -10 -12 15 -11 19 10 35
19 14 27 16 42 6 10 -6 17 -20 16 -31z m242 6 c0 -30 -59 -41 -81 -15 -11 14
-9 19 11 34 22 16 26 17 47 3 13 -8 23 -18 23 -22z m120 0 c0 -30 -59 -41 -81
-15 -11 14 -9 19 11 34 22 16 26 17 47 3 13 -8 23 -18 23 -22z m108 -6 c-4
-26 -49 -32 -68 -10 -12 15 -11 19 10 35 19 14 27 16 42 6 10 -6 17 -20 16
-31z m-828 25 c18 -12 3 -43 -24 -48 -36 -7 -63 42 -28 51 28 8 36 7 52 -3z
m115 -4 c16 -12 17 -16 6 -30 -20 -23 -58 -20 -66 5 -11 35 26 50 60 25z m355
-1 c17 -21 5 -45 -23 -45 -41 0 -65 44 -29 53 31 8 39 7 52 -8z m438 -15 c0
-20 -4 -30 -14 -30 -20 0 -29 27 -14 45 19 23 27 18 28 -15z m-1956 -12 c-9
-9 -12 -7 -12 12 0 19 3 21 12 12 9 -9 9 -15 0 -24z m68 -59 c0 -14 -30 -30
-52 -27 -29 4 -36 35 -12 53 15 11 22 10 41 -4 12 -9 23 -19 23 -22z m95 21
c17 -19 17 -22 3 -37 -18 -17 -68 -11 -68 9 0 13 29 48 40 48 4 0 15 -9 25
-20z m135 -19 c0 -29 -59 -41 -80 -16 -10 12 -8 18 11 34 21 17 25 17 46 4 13
-9 23 -18 23 -22z m228 -4 c5 -24 -45 -34 -66 -14 -14 15 -14 18 3 37 16 18
21 19 39 6 12 -7 22 -21 24 -29z m122 4 c0 -14 -25 -31 -47 -31 -34 0 -46 30
-20 51 19 15 24 15 44 2 13 -9 23 -18 23 -22z m120 0 c0 -30 -59 -41 -81 -15
-11 14 -9 19 11 34 22 16 26 17 47 3 13 -8 23 -18 23 -22z m113 -9 c-9 -21
-53 -26 -71 -8 -16 16 -15 18 7 35 23 18 26 18 47 3 12 -9 19 -23 17 -30z
m103 29 c22 -18 23 -21 8 -35 -20 -20 -48 -20 -64 -1 -10 13 -10 19 5 35 22
24 21 24 51 1z m249 -11 c10 -16 -15 -40 -41 -40 -35 0 -47 30 -20 51 21 17
47 12 61 -11z m125 -9 c0 -29 -59 -41 -80 -16 -10 12 -8 18 11 34 21 17 25 17
46 4 13 -9 23 -18 23 -22z m109 -13 c-12 -22 -52 -23 -70 -2 -11 14 -9 19 11
34 22 17 25 17 46 2 17 -13 20 -21 13 -34z m103 32 c20 -19 21 -22 6 -36 -18
-18 -68 -12 -68 8 0 11 29 48 37 48 2 0 14 -9 25 -20z m247 -32 c-12 -22 -52
-23 -70 -2 -11 14 -9 19 11 34 22 17 25 17 46 2 17 -13 20 -21 13 -34z m-1415
29 c17 -13 17 -14 1 -30 -21 -21 -49 -22 -66 -1 -11 14 -10 18 6 30 24 17 36
18 59 1z m706 -3 c19 -22 -9 -49 -44 -40 -28 7 -33 25 -14 44 17 17 43 15 58
-4z m585 2 c16 -12 17 -16 6 -30 -18 -22 -58 -20 -71 3 -8 16 -6 22 7 30 24
14 36 13 58 -3z m234 0 c18 -21 2 -46 -29 -46 -35 0 -49 29 -24 47 23 17 39
16 53 -1z m-1689 -91 c0 -27 -51 -33 -74 -9 -15 14 -14 17 6 34 20 16 25 16
45 3 13 -9 23 -21 23 -28z m120 6 c0 -30 -59 -41 -81 -15 -11 14 -9 19 11 34
22 16 26 17 47 3 13 -8 23 -18 23 -22z m120 0 c0 -30 -59 -41 -81 -15 -11 14
-9 19 11 34 22 16 26 17 47 3 13 -8 23 -18 23 -22z m448 20 c23 -17 23 -19 7
-35 -21 -20 -54 -18 -69 6 -8 14 -6 21 9 32 25 19 25 19 53 -3z m722 -20 c0
-13 -24 -31 -40 -31 -9 0 -25 7 -36 15 -19 14 -18 15 5 34 23 17 27 18 48 4
13 -8 23 -18 23 -22z m120 0 c0 -30 -59 -41 -81 -15 -11 14 -9 19 11 34 22 16
26 17 47 3 13 -8 23 -18 23 -22z m-1662 17 c28 -28 -4 -57 -48 -43 -33 11 -17
55 20 55 9 0 21 -5 28 -12z m463 2 c27 -15 24 -38 -7 -46 -35 -9 -63 18 -44
40 15 19 24 20 51 6z m124 -4 c16 -12 17 -16 6 -30 -17 -20 -60 -21 -67 -1 -7
17 12 45 30 45 7 0 21 -6 31 -14z m120 0 c16 -12 17 -16 6 -30 -7 -9 -24 -16
-36 -16 -12 0 -29 7 -36 16 -11 14 -10 18 6 30 10 8 24 14 30 14 6 0 20 -6 30
-14z m229 8 c26 -10 19 -43 -10 -50 -35 -9 -63 18 -44 40 13 17 29 20 54 10z
m126 -9 c10 -12 10 -18 0 -30 -16 -20 -45 -19 -65 2 -16 16 -16 17 1 30 24 17
49 17 64 -2z m115 1 c16 -12 17 -16 6 -30 -18 -22 -58 -20 -71 3 -8 16 -6 22
7 30 24 14 36 13 58 -3z m114 2 c15 -9 17 -16 10 -30 -12 -22 -52 -23 -70 -2
-11 14 -10 18 6 30 23 17 30 17 54 2z m119 0 c28 -28 -4 -57 -48 -43 -33 11
-17 55 20 55 9 0 21 -5 28 -12z m350 0 c19 -19 14 -37 -14 -44 -18 -5 -31 -1
-42 10 -16 16 -16 18 2 32 24 17 38 18 54 2z m92 -18 c0 -32 -1 -33 -24 -24
-19 7 -21 25 -4 42 19 19 28 14 28 -18z m-1950 1 c0 -6 -4 -13 -10 -16 -5 -3
-10 1 -10 9 0 9 5 16 10 16 6 0 10 -4 10 -9z m38 -53 c23 -23 13 -38 -23 -38
-28 0 -35 4 -35 19 0 29 37 40 58 19z m118 -2 c25 -19 7 -39 -32 -34 -48 5
-44 36 7 47 3 0 14 -5 25 -13z m119 1 c25 -19 11 -37 -30 -37 -37 0 -54 24
-27 39 23 14 35 13 57 -2z m115 3 c29 -16 13 -40 -25 -40 -41 0 -55 18 -30 37
22 16 30 16 55 3z m118 -2 c24 -24 14 -39 -25 -36 -59 5 -56 40 3 47 5 0 15
-4 22 -11z m122 -3 c17 -21 4 -35 -35 -35 -41 0 -55 18 -30 37 24 17 50 17 65
-2z m115 2 c25 -19 11 -37 -30 -37 -19 0 -37 5 -41 12 -7 11 21 38 41 38 6 0
19 -6 30 -13z m113 1 c24 -24 13 -38 -28 -38 -43 0 -55 20 -22 39 23 14 36 13
50 -1z m116 6 c9 -3 16 -15 16 -26 0 -16 -6 -19 -37 -16 -57 5 -58 37 -1 47 3
0 13 -2 22 -5z m117 -4 c34 -19 23 -40 -21 -40 -43 0 -55 20 -22 39 21 13 20
13 43 1z m124 -3 c25 -19 11 -37 -30 -37 -19 0 -37 5 -41 12 -7 11 21 38 41
38 6 0 19 -6 30 -13z m120 0 c25 -19 11 -37 -30 -37 -19 0 -37 5 -41 12 -7 11
21 38 41 38 6 0 19 -6 30 -13z m109 3 c36 -13 23 -40 -19 -40 -41 0 -55 18
-30 37 22 16 18 15 49 3z m121 -3 c25 -19 10 -37 -31 -37 -27 0 -34 4 -34 19
0 30 35 40 65 18z m120 0 c25 -19 10 -37 -31 -37 -35 0 -44 16 -22 38 16 16
30 15 53 -1z m109 7 c9 -3 16 -15 16 -25 0 -15 -7 -19 -34 -19 -41 0 -56 18
-31 37 21 15 27 16 49 7z m121 -7 c24 -18 11 -37 -25 -37 -36 0 -49 19 -25 37
11 7 22 13 25 13 3 0 14 -6 25 -13z m34 -516 c1 -209 -2 -387 -5 -395 -6 -14
-103 -16 -985 -16 l-979 0 0 395 0 395 984 0 985 0 0 -379z m599 -187 c99 -49
151 -146 139 -258 -7 -66 -26 -106 -78 -155 -83 -81 -227 -89 -321 -17 -66 51
-98 117 -98 206 0 77 14 114 69 173 70 77 193 99 289 51z m-460 -209 c0 -33 2
-75 6 -93 7 -29 5 -33 -9 -30 -21 4 -45 74 -45 134 0 47 2 50 29 50 19 0 21
-6 19 -61z m-2097 -95 c5 0 9 -71 9 -163 0 -144 -2 -166 -17 -179 -28 -23 -50
-28 -82 -17 -37 13 -43 37 -25 102 7 29 20 81 28 117 8 36 17 72 20 80 24 67
27 72 42 66 9 -3 20 -6 25 -6z m177 5 c22 -5 22 -8 22 -163 0 -171 -6 -194
-55 -206 -25 -6 -64 7 -77 28 -8 11 -11 330 -4 337 7 6 89 9 114 4z m200 -166
c3 -189 -1 -203 -63 -203 -61 0 -65 14 -65 205 l0 167 63 -2 62 -2 3 -165z
m190 1 c3 -189 -2 -204 -62 -204 -62 0 -66 10 -69 192 -2 186 -3 184 78 180
l50 -3 3 -165z m192 1 c0 -91 -4 -171 -8 -177 -13 -21 -52 -34 -77 -28 -49 12
-55 35 -55 205 0 85 2 158 4 160 2 2 34 4 70 5 l66 0 0 -165z m168 158 c22 -8
22 -12 22 -163 0 -132 -2 -157 -17 -174 -27 -32 -64 -37 -96 -12 l-27 21 0
163 c0 89 3 166 7 170 9 8 81 5 111 -5z m200 -165 c3 -191 0 -198 -63 -198
-62 0 -65 8 -65 194 0 91 2 169 5 172 3 2 31 4 63 4 l57 -1 3 -171z m190 15
c1 -85 0 -164 -3 -176 -7 -30 -59 -47 -94 -30 l-26 12 -3 172 -2 172 52 4 c29
1 58 2 63 2 6 -1 11 -63 13 -156z m155 155 l37 -7 0 -162 c0 -150 -2 -163 -20
-180 -29 -26 -79 -24 -102 4 -16 20 -18 43 -18 181 0 143 2 159 18 163 27 7
44 7 85 1z m214 -7 c4 -5 9 -77 11 -161 2 -138 1 -155 -16 -176 -14 -18 -30
-24 -57 -24 -60 0 -65 14 -65 199 0 89 2 164 5 166 8 8 113 4 122 -4z m181 4
c9 -1 12 -42 12 -170 0 -188 -2 -195 -67 -195 -58 0 -63 16 -63 199 0 89 3
165 7 168 4 4 27 5 52 3 25 -2 52 -5 59 -5z m113 -3 c9 -7 28 -65 43 -128 15
-63 32 -127 38 -142 24 -63 -29 -115 -89 -86 l-28 13 -3 178 c-3 185 0 197 39
165z m-1171 -697 c1 -230 -1 -270 -15 -281 -8 -7 -15 -25 -15 -41 0 -16 -4
-29 -10 -29 -5 0 -10 -9 -10 -20 0 -20 -7 -20 -385 -20 l-385 0 0 330 c0 182
2 330 4 330 2 0 11 3 20 6 14 5 16 -28 18 -307 l3 -314 363 -3 362 -2 0 314
c0 242 3 315 13 319 32 12 35 -13 37 -282z m368 -35 c1 -213 -1 -315 -8 -311
-5 3 -10 19 -10 36 0 16 -4 29 -10 29 -11 0 -14 552 -3 564 24 24 28 -16 31
-318z m772 304 c10 0 13 -620 4 -645 -5 -13 -56 -15 -385 -15 -372 0 -379 0
-379 20 0 20 7 20 360 20 l360 0 0 316 c0 284 2 316 16 310 9 -3 20 -6 24 -6z
m-1260 -280 l0 -270 -290 0 -290 0 0 270 0 270 290 0 290 0 0 -270z m398 -2
l2 -268 -115 0 -115 0 0 270 0 271 113 -3 112 -3 3 -267z m747 2 l0 -265 -287
-3 -288 -2 0 270 0 270 288 -2 287 -3 0 -265z m-725 -340 c0 -19 -7 -20 -140
-20 -133 0 -140 1 -140 20 0 19 7 20 140 20 133 0 140 -1 140 -20z m20 -70 c0
-19 -7 -20 -160 -20 -153 0 -160 1 -160 20 0 19 7 20 160 20 153 0 160 -1 160
-20z"></path>
<path class="node" id="node2" d="M436 2005 c-73 -19 -122 -48 -141 -85 -21 -40 -19 -50 10 -50 l25 0
0 -185 0 -185 25 12 c23 10 25 16 25 80 l0 68 64 0 c72 0 76 -4 76 -92 0 -41
3 -48 20 -48 18 0 20 7 20 70 l0 70 70 0 70 0 0 -49 c0 -62 7 -81 31 -81 18 0
19 10 19 170 l0 170 25 6 c29 7 30 8 9 43 -47 79 -213 120 -348 86z m74 -142
c3 -3 5 -43 6 -89 l0 -84 -68 0 -68 0 0 89 c0 85 1 90 23 94 23 5 99 -2 107
-10z m146 7 l44 0 0 -90 0 -90 -70 0 -70 0 0 89 c0 90 6 105 38 95 8 -2 34 -4
58 -4z"></path>
<path class="node" id="node3" d="M1068 2005 c-75 -19 -133 -56 -146 -94 -12 -33 -7 -41 20 -41 17 0
18 -13 18 -196 l0 -195 23 3 c21 3 22 8 25 91 l3 87 69 0 70 0 0 -74 c0 -58 3
-75 16 -80 28 -11 34 4 34 80 l0 74 65 0 65 0 0 -71 c0 -65 2 -71 23 -77 12
-3 24 -5 27 -4 3 1 7 84 10 184 4 153 7 183 20 183 29 0 22 36 -14 69 -66 63
-214 90 -328 61z m250 -134 c8 -1 12 -26 12 -91 l0 -90 -65 0 -65 0 0 89 c0
106 -3 103 118 92z m-173 -91 l0 -85 -67 -3 -68 -3 0 91 0 91 68 -3 67 -3 0
-85z"></path>
<path class="node" id="node4" d="M1709 2006 c-84 -19 -153 -66 -161 -111 -2 -16 2 -19 20 -18 l22 3 0
-168 c0 -93 3 -171 6 -174 3 -3 14 -4 25 -1 16 5 19 14 19 64 l0 59 70 0 70 0
0 -85 c0 -63 3 -85 13 -85 27 0 37 25 37 97 l0 73 70 0 69 0 3 -62 c3 -55 5
-63 23 -63 19 0 20 8 23 168 2 153 4 167 21 167 28 0 31 10 15 41 -21 41 -78
76 -154 93 -76 18 -114 19 -191 2z m49 -134 c21 -2 22 -6 22 -92 l0 -90 -70 0
-70 0 0 93 0 92 48 -1 c26 0 57 -2 70 -2z m210 -90 l3 -92 -71 0 -70 0 0 89 0
90 28 3 c15 2 45 3 67 2 l40 0 3 -92z"></path>
<path class="node" id="node5" d="M610 1509 c-31 -16 -43 -17 -103 -8 -47 7 -72 8 -80 0 -7 -5 -22 -8
-34 -5 -11 3 -27 -1 -36 -10 -8 -9 -22 -13 -30 -10 -28 10 -49 -25 -41 -70 13
-81 -3 -76 255 -76 l229 0 10 24 c5 14 10 42 12 63 2 31 -1 40 -19 48 -13 5
-23 15 -23 21 0 21 -28 36 -46 26 -12 -7 -24 -6 -38 3 -18 11 -26 10 -56 -6z"></path>
<path class="node" id="node6" d="M1250 1510 c0 -5 -8 -10 -19 -10 -10 0 -24 -6 -30 -14 -9 -11 -18
-12 -40 -3 -23 8 -34 7 -53 -5 -17 -11 -29 -13 -41 -6 -19 10 -57 2 -57 -12 0
-5 -13 -7 -29 -4 -16 3 -38 1 -49 -5 -19 -10 -19 -14 -8 -63 l11 -53 232 -3
c263 -3 247 -8 259 82 6 43 -4 60 -38 65 -47 8 -69 16 -79 27 -13 16 -59 19
-59 4z"></path>
<path class="node" id="node7" d="M1608 1502 c-7 -9 -26 -25 -41 -35 -18 -12 -26 -24 -23 -35 3 -9 10
-36 16 -59 l11 -43 234 0 235 0 6 28 c3 15 10 39 14 55 8 24 4 32 -27 63 -32
32 -43 37 -95 40 -33 2 -58 -1 -58 -6 0 -6 -9 -10 -20 -10 -10 0 -24 -8 -29
-18 -13 -25 -68 -18 -76 9 -7 21 -65 28 -65 7 0 -6 -7 -4 -18 5 -24 22 -48 21
-64 -1z"></path>
<path class="node" id="node8" d="M2564 1453 c4 -14 2 -38 -4 -54 -9 -20 -9 -33 0 -48 15 -29 42 -28
39 2 -1 12 1 36 5 54 8 37 -7 73 -30 73 -12 0 -15 -6 -10 -27z"></path>
<path class="node" id="node9" d="M2631 1448 c0 -18 -3 -47 -6 -64 -5 -21 -2 -34 9 -43 19 -16 40 -5
31 17 -3 8 -1 30 5 48 8 24 8 39 0 54 -17 32 -40 25 -39 -12z"></path>
<path class="node" id="node10" d="M2698 1473 c-2 -5 -3 -37 -3 -73 0 -58 2 -65 20 -65 16 0 19 6 17 27
-2 15 2 36 8 48 9 17 8 26 -5 46 -15 24 -31 31 -37 17z"></path>
<path class="node" id="node11" d="M2464 1311 c-19 -20 23 -110 66 -143 34 -25 36 -34 13 -60 -9 -10
-14 -20 -11 -23 3 -3 58 -4 123 -3 l117 3 -20 25 -20 24 43 41 c44 44 75 109
58 126 -9 9 -360 18 -369 10z"></path>
<path class="node" id="node12" d="M330 620 c0 -60 0 -113 0 -117 0 -5 37 -8 83 -8 l82 0 0 105 c1 58
-1 111 -3 118 -3 8 -29 12 -83 12 l-79 0 0 -110z"></path>
<path class="node" id="node13" d="M519 725 c-3 -2 -4 -44 -2 -92 1 -48 2 -100 3 -115 l0 -28 80 0 80 0
0 120 0 120 -78 0 c-43 0 -81 -2 -83 -5z"></path>
<path class="node" id="node14" d="M704 717 c-2 -7 -3 -60 -2 -118 l3 -104 83 -3 82 -3 0 121 0 120 -80
0 c-58 0 -82 -4 -86 -13z"></path>
<path class="node" id="node15" d="M328 373 c-5 -149 -10 -140 82 -142 55 -1 79 2 82 11 3 7 4 60 2 118
l-2 105 -80 3 -81 3 -3 -98z"></path>
<path class="node" id="node16" d="M515 451 c-3 -10 -3 -63 -1 -117 l5 -99 81 -3 80 -3 0 121 0 120 -79
0 c-69 0 -80 -2 -86 -19z"></path>
<path class="node" id="node17" d="M704 457 c-2 -7 -3 -60 -2 -118 l3 -104 83 -3 82 -3 0 121 0 120 -80
0 c-58 0 -82 -4 -86 -13z"></path>
<path class="node" id="node18" d="M1080 610 l0 -120 95 0 96 0 -3 118 -3 117 -92 3 -93 3 0 -121z m130
-25 c0 -22 -4 -25 -40 -25 -36 0 -40 3 -40 25 0 23 4 25 40 25 36 0 40 -2 40
-25z"></path>
<path class="node" id="node19" d="M1080 350 l0 -120 95 0 95 0 0 120 0 120 -95 0 -95 0 0 -120z"></path>
<path class="node" id="node20" d="M1479 726 c-2 -2 -3 -56 -1 -120 l3 -116 80 0 79 0 0 120 0 120 -78
0 c-43 0 -81 -2 -83 -4z"></path>
<path class="node" id="node21" d="M1664 717 c-2 -7 -3 -60 -2 -118 l3 -104 83 -3 82 -3 0 121 0 120
-80 0 c-58 0 -82 -4 -86 -13z"></path>
<path class="node" id="node22" d="M1850 610 l0 -121 83 3 82 3 0 115 0 115 -82 3 -83 3 0 -121z"></path>
<path class="node" id="node23" d="M1480 360 c0 -60 -1 -113 -2 -117 -2 -5 34 -9 80 -11 l82 -3 0 121 0
120 -80 0 -80 0 0 -110z"></path>
<path class="node" id="node24" d="M1664 457 c-2 -7 -3 -60 -2 -118 l3 -104 80 0 80 0 3 118 3 117 -81
0 c-57 0 -82 -4 -86 -13z"></path>
<path class="node" id="node25" d="M1852 353 l3 -118 80 0 80 0 0 115 0 115 -83 3 -83 3 3 -118z"></path>
</g>
<g transform="translate(0.000000,300.000000) scale(0.100000,-0.100000)" fill="#FFFFFF" stroke="none">

<path class="node" id="node27" d="M250 2654 c15 -17 61 -15 68 4 2 8 -9 12 -38 12 -37 0 -41 -2 -30
-16z"></path>
<path class="node" id="node28" d="M360 2660 c0 -19 51 -23 68 -6 15 15 13 16 -26 16 -23 0 -42 -4 -42
-10z"></path>
<path class="node" id="node29" d="M483 2658 c2 -7 16 -13 32 -13 16 0 30 6 33 13 2 8 -8 12 -33 12 -25
0 -35 -4 -32 -12z"></path>
<path class="node" id="node30" d="M600 2661 c0 -16 20 -23 46 -17 36 9 29 26 -11 26 -19 0 -35 -4 -35
-9z"></path>
<path class="node" id="node31" d="M720 2655 c0 -9 9 -15 24 -15 13 0 29 7 36 15 11 13 7 15 -24 15 -25
0 -36 -4 -36 -15z"></path>
<path class="node" id="node32" d="M833 2658 c2 -7 16 -13 32 -13 16 0 30 6 33 13 2 8 -8 12 -33 12 -25
0 -35 -4 -32 -12z"></path>
<path class="node" id="node33" d="M950 2661 c0 -16 20 -23 46 -17 36 9 29 26 -11 26 -19 0 -35 -4 -35
-9z"></path>
<path class="node" id="node34" d="M1070 2661 c0 -16 20 -23 46 -17 36 9 29 26 -11 26 -19 0 -35 -4 -35
-9z"></path>
<path class="node" id="node35" d="M1193 2658 c2 -7 16 -13 32 -13 16 0 30 6 33 13 2 8 -8 12 -33 12
-25 0 -35 -4 -32 -12z"></path>
<path class="node" id="node36" d="M1310 2655 c7 -8 20 -15 30 -15 10 0 23 7 30 15 11 13 7 15 -30 15
-37 0 -41 -2 -30 -15z"></path>
<path class="node" id="node37" d="M1423 2658 c2 -7 16 -13 32 -13 16 0 30 6 33 13 2 8 -8 12 -33 12
-25 0 -35 -4 -32 -12z"></path>
<path class="node" id="node38" d="M1543 2658 c2 -7 16 -13 32 -13 16 0 30 6 33 13 2 8 -8 12 -33 12
-25 0 -35 -4 -32 -12z"></path>
<path class="node" id="node39" d="M1663 2658 c2 -7 16 -13 32 -13 16 0 30 6 33 13 2 8 -8 12 -33 12
-25 0 -35 -4 -32 -12z"></path>
<path class="node" id="node40" d="M1770 2660 c0 -12 45 -24 59 -15 22 13 10 25 -24 25 -19 0 -35 -4
-35 -10z"></path>
<path class="node" id="node41" d="M1893 2658 c2 -7 16 -13 32 -13 16 0 30 6 33 13 2 8 -8 12 -33 12
-25 0 -35 -4 -32 -12z"></path>
<path class="node" id="node42" d="M2010 2654 c15 -17 61 -15 68 4 2 8 -9 12 -38 12 -37 0 -41 -2 -30
-16z"></path>
<path class="node" id="node43" d="M2120 2661 c0 -5 7 -12 16 -15 22 -9 24 -8 24 9 0 8 -9 15 -20 15
-11 0 -20 -4 -20 -9z"></path>
<path class="node" id="node44" d="M315 2620 c-15 -16 -15 -22 -5 -35 7 -8 20 -15 30 -15 10 0 23 7 30
15 10 13 10 19 -5 35 -10 11 -21 20 -25 20 -4 0 -15 -9 -25 -20z"></path>
<path class="node" id="node45" d="M432 2620 c-20 -17 -21 -20 -6 -34 18 -19 45 -21 62 -4 17 17 15 24
-11 41 -20 13 -25 13 -45 -3z"></path>
<path class="node" id="node46" d="M549 2619 c-22 -17 -23 -19 -7 -35 11 -11 25 -15 41 -10 34 8 40 31
13 49 -20 13 -25 13 -47 -4z"></path>
<path class="node" id="node47" d="M666 2620 c-16 -16 -17 -22 -6 -35 16 -19 44 -19 60 0 10 13 10 19
-5 35 -22 24 -25 24 -49 0z"></path>
<path class="node" id="node48" d="M782 2620 c-20 -17 -21 -20 -6 -34 18 -19 45 -21 62 -4 17 17 15 24
-11 41 -20 13 -25 13 -45 -3z"></path>
<path class="node" id="node49" d="M900 2620 c-20 -15 -22 -20 -11 -34 16 -19 52 -21 69 -4 17 17 15 24
-11 41 -21 14 -25 13 -47 -3z"></path>
<path class="node" id="node50" d="M1019 2619 c-22 -17 -23 -19 -7 -35 11 -11 25 -15 41 -10 34 8 39 28
13 48 -21 15 -24 15 -47 -3z"></path>
<path class="node" id="node51" d="M1138 2620 c-21 -17 -22 -20 -6 -36 11 -11 25 -15 41 -10 35 8 40 31
12 50 -22 14 -25 14 -47 -4z"></path>
<path class="node" id="node52" d="M1372 2620 c-20 -17 -21 -20 -6 -34 19 -20 48 -21 64 -1 26 31 -24
62 -58 35z"></path>
<path class="node" id="node53" d="M1489 2619 c-23 -19 -24 -20 -5 -34 24 -18 48 -19 64 -3 17 17 15 24
-11 41 -21 14 -25 13 -48 -4z"></path>
<path class="node" id="node54" d="M1610 2621 c-20 -16 -22 -21 -11 -35 17 -20 45 -20 61 0 11 12 10 18
-6 34 -19 19 -20 19 -44 1z"></path>
<path class="node" id="node55" d="M1727 2622 c-24 -26 -21 -41 9 -48 17 -4 31 -1 42 10 15 14 14 17 -6
36 -26 24 -25 24 -45 2z"></path>
<path class="node" id="node56" d="M1841 2621 c-21 -16 -22 -19 -6 -34 19 -20 46 -22 63 -5 17 17 15 24
-11 41 -21 13 -25 13 -46 -2z"></path>
<path class="node" id="node57" d="M1959 2619 c-22 -17 -23 -19 -7 -35 11 -11 25 -15 41 -10 34 8 40 31
13 49 -20 13 -25 13 -47 -4z"></path>
<path class="node" id="node58" d="M2075 2620 c-15 -16 -16 -22 -5 -35 16 -20 49 -16 64 7 8 14 6 21 -9
32 -26 20 -29 20 -50 -4z"></path>
<path class="node" id="node59" d="M202 2621 c-20 -12 -10 -46 14 -49 12 -2 29 5 39 14 16 17 16 18 -1
31 -21 15 -34 16 -52 4z"></path>
<path class="node" id="node60" d="M1250 2615 c-15 -18 2 -45 30 -45 28 0 45 27 30 45 -7 8 -20 15 -30
15 -10 0 -23 -7 -30 -15z"></path>
<path class="node" id="node61" d="M258 2550 c-21 -17 -22 -20 -6 -36 11 -11 24 -15 42 -10 31 8 34 36
7 53 -16 10 -24 9 -43 -7z"></path>
<path class="node" id="node62" d="M493 2553 c-18 -12 -21 -19 -12 -34 11 -21 49 -25 67 -7 17 17 15 24
-11 41 -20 13 -25 13 -44 0z"></path>
<path class="node" id="node63" d="M613 2557 c-45 -20 -13 -68 34 -51 35 12 39 28 11 46 -17 11 -29 13
-45 5z"></path>
<path class="node" id="node64" d="M961 2554 c-17 -12 -19 -19 -11 -35 14 -25 56 -25 69 0 9 15 6 22
-13 34 -21 14 -26 14 -45 1z"></path>
<path class="node" id="node65" d="M1075 2550 c-17 -19 -17 -22 -3 -37 20 -19 68 -10 68 14 0 14 -26 42
-41 43 -3 0 -14 -9 -24 -20z"></path>
<path class="node" id="node66" d="M1195 2550 c-15 -16 -16 -22 -5 -35 16 -20 49 -16 64 7 8 14 6 21 -9
32 -26 20 -29 20 -50 -4z"></path>
<path class="node" id="node67" d="M1315 2554 c-15 -11 -17 -18 -9 -32 6 -9 21 -17 34 -17 13 0 28 8 34
17 8 14 6 21 -9 32 -11 9 -22 15 -25 15 -3 0 -14 -6 -25 -15z"></path>
<path class="node" id="node68" d="M1431 2551 c-21 -16 -22 -19 -6 -34 20 -21 49 -22 65 -2 26 31 -24
62 -59 36z"></path>
<path class="node" id="node69" d="M1549 2549 c-22 -17 -23 -19 -7 -35 11 -11 24 -15 42 -10 30 7 35 36
8 53 -15 9 -23 7 -43 -8z"></path>
<path class="node" id="node70" d="M1665 2550 c-15 -16 -15 -22 -5 -35 15 -18 42 -19 58 -3 18 18 14 34
-12 46 -20 9 -27 7 -41 -8z"></path>
<path class="node" id="node71" d="M1780 2549 c-24 -19 -25 -20 -6 -34 25 -19 50 -19 66 0 13 16 7 30
-18 44 -13 7 -25 4 -42 -10z"></path>
<path class="node" id="node72" d="M1900 2550 c-20 -15 -22 -20 -11 -34 25 -30 96 -8 76 24 -15 24 -41
28 -65 10z"></path>
<path class="node" id="node73" d="M2019 2549 c-22 -17 -23 -19 -7 -35 11 -11 24 -15 42 -10 30 7 35 36
8 53 -15 9 -23 7 -43 -8z"></path>
<path class="node" id="node74" d="M373 2553 c-7 -2 -13 -13 -13 -24 0 -26 46 -37 67 -16 28 28 -12 58
-54 40z"></path>
<path class="node" id="node75" d="M720 2550 c-12 -7 -12 -13 -4 -27 15 -24 47 -28 64 -8 25 30 -23 59
-60 35z"></path>
<path class="node" id="node76" d="M843 2553 c-7 -2 -13 -13 -13 -24 0 -27 46 -37 68 -15 16 16 16 18
-2 32 -20 14 -32 16 -53 7z"></path>
<path class="node" id="node77" d="M2132 2548 c-17 -17 -15 -35 4 -42 23 -9 24 -8 24 24 0 32 -9 37 -28
18z"></path>
<path class="node" id="node78" d="M190 2531 c0 -25 6 -27 13 -6 4 8 2 17 -3 20 -6 4 -10 -3 -10 -14z"></path>
<path class="node" id="node79" d="M900 2480 c-20 -15 -22 -20 -11 -34 16 -19 52 -21 69 -4 17 17 15 24
-11 41 -21 14 -25 13 -47 -3z"></path>
<path class="node" id="node80" d="M1143 2486 c-27 -12 -29 -28 -8 -46 20 -17 65 -4 65 18 0 25 -30 40
-57 28z"></path>
<path class="node" id="node81" d="M1609 2481 c-20 -16 -21 -21 -10 -35 16 -19 42 -21 59 -4 17 17 15
31 -7 45 -16 10 -24 9 -42 -6z"></path>
<path class="node" id="node82" d="M202 2481 c-19 -12 -11 -45 11 -49 10 -2 27 4 38 14 19 17 19 19 3
31 -21 15 -34 16 -52 4z"></path>
<path class="node" id="node83" d="M310 2480 c-21 -13 0 -45 30 -45 30 0 51 32 30 45 -8 5 -22 10 -30
10 -8 0 -22 -5 -30 -10z"></path>
<path class="node" id="node84" d="M427 2479 c-13 -8 -15 -14 -7 -30 13 -23 53 -25 71 -3 11 14 10 18
-6 30 -22 16 -34 17 -58 3z"></path>
<path class="node" id="node85" d="M545 2476 c-16 -12 -17 -16 -6 -30 17 -21 45 -20 66 1 16 16 16 17
-1 30 -23 17 -35 16 -59 -1z"></path>
<path class="node" id="node86" d="M668 2483 c-21 -5 -23 -24 -6 -41 28 -28 83 3 58 33 -13 15 -21 16
-52 8z"></path>
<path class="node" id="node87" d="M777 2479 c-14 -8 -15 -14 -6 -30 13 -25 57 -22 73 4 19 30 -28 49
-67 26z"></path>
<path class="node" id="node88" d="M1018 2483 c-21 -5 -23 -24 -6 -41 17 -17 44 -15 63 5 16 16 16 17
-1 30 -18 13 -26 14 -56 6z"></path>
<path class="node" id="node89" d="M1253 2483 c-20 -8 -15 -41 7 -48 29 -9 60 3 60 25 0 25 -34 37 -67
23z"></path>
<path class="node" id="node90" d="M1367 2479 c-26 -16 -4 -51 30 -47 24 3 53 31 43 42 -12 11 -57 15
-73 5z"></path>
<path class="node" id="node91" d="M1485 2476 c-16 -12 -17 -16 -6 -30 7 -9 24 -16 36 -16 12 0 29 7 36
16 11 14 10 18 -6 30 -10 8 -24 14 -30 14 -6 0 -20 -6 -30 -14z"></path>
<path class="node" id="node92" d="M1723 2483 c-7 -2 -13 -13 -13 -24 0 -23 44 -36 65 -19 36 30 -4 63
-52 43z"></path>
<path class="node" id="node93" d="M1837 2479 c-13 -8 -15 -14 -7 -30 13 -23 53 -25 71 -3 11 14 10 18
-6 30 -22 16 -34 17 -58 3z"></path>
<path class="node" id="node94" d="M1955 2476 c-17 -12 -17 -16 -5 -30 16 -21 49 -17 64 7 8 14 8 20 -4
27 -21 13 -33 12 -55 -4z"></path>
<path class="node" id="node95" d="M2070 2480 c-21 -13 0 -45 30 -45 30 0 51 32 30 45 -8 5 -22 10 -30
10 -8 0 -22 -5 -30 -10z"></path>
<path class="node" id="node96" d="M255 2410 c-15 -16 -15 -22 -5 -35 16 -20 59 -19 67 0 5 15 -22 55
-37 55 -4 0 -15 -9 -25 -20z"></path>
<path class="node" id="node97" d="M373 2413 c-18 -12 -21 -19 -12 -34 11 -21 49 -25 67 -7 17 17 15 24
-11 41 -20 13 -25 13 -44 0z"></path>
<path class="node" id="node98" d="M490 2410 c-20 -15 -22 -20 -11 -34 16 -19 52 -21 69 -4 17 17 15 24
-11 41 -21 14 -25 13 -47 -3z"></path>
<path class="node" id="node99" d="M613 2416 c-26 -12 -29 -26 -11 -44 18 -18 56 -14 67 7 15 27 -24 51
-56 37z"></path>
<path class="node" id="node100" d="M726 2415 c-24 -18 -17 -49 12 -53 22 -3 52 13 52 28 0 4 -10 14 -23
23 -19 12 -26 13 -41 2z"></path>
<path class="node" id="node101" d="M843 2413 c-18 -12 -21 -19 -12 -34 11 -21 49 -25 67 -7 17 17 15 24
-11 41 -20 13 -25 13 -44 0z"></path>
<path class="node" id="node102" d="M960 2410 c-20 -15 -22 -20 -11 -34 16 -19 52 -21 69 -4 17 17 15 24
-11 41 -21 14 -25 13 -47 -3z"></path>
<path class="node" id="node103" d="M1082 2415 c-26 -11 -25 -33 1 -49 12 -8 22 -8 35 0 41 26 9 70 -36
49z"></path>
<path class="node" id="node104" d="M1430 2410 c-20 -15 -22 -20 -11 -34 18 -22 58 -20 70 3 9 15 6 22
-12 34 -21 14 -26 13 -47 -3z"></path>
<path class="node" id="node105" d="M1550 2410 c-21 -16 -22 -20 -10 -35 19 -22 64 -16 68 10 1 11 -6 25
-16 31 -15 10 -23 8 -42 -6z"></path>
<path class="node" id="node106" d="M1780 2410 c-20 -15 -22 -20 -11 -34 16 -19 52 -21 69 -4 17 17 15
24 -11 41 -21 14 -25 13 -47 -3z"></path>
<path class="node" id="node107" d="M1900 2410 c-20 -15 -22 -20 -11 -34 16 -19 52 -21 69 -4 17 17 15
24 -11 41 -21 14 -25 13 -47 -3z"></path>
<path class="node" id="node108" d="M2020 2410 c-21 -16 -22 -20 -10 -35 19 -22 64 -16 68 10 1 11 -6 25
-16 31 -15 10 -23 8 -42 -6z"></path>
<path class="node" id="node109" d="M1198 2413 c-22 -5 -23 -26 -3 -43 18 -15 45 -10 59 13 17 27 -11 42
-56 30z"></path>
<path class="node" id="node110" d="M1311 2411 c-8 -5 -11 -16 -6 -30 8 -25 46 -28 66 -5 11 14 10 18 -6
30 -22 16 -34 17 -54 5z"></path>
<path class="node" id="node111" d="M1668 2413 c-36 -9 -12 -53 29 -53 28 0 40 24 23 45 -13 15 -21 16
-52 8z"></path>
<path class="node" id="node112" d="M2130 2405 c-15 -18 -6 -45 14 -45 10 0 14 10 14 30 -1 33 -9 38 -28
15z"></path>
<path class="node" id="node113" d="M190 2390 c0 -19 3 -21 12 -12 9 9 9 15 0 24 -9 9 -12 7 -12 -12z"></path>
<path class="node" id="node114" d="M206 2345 c-24 -18 -17 -49 12 -53 22 -3 52 13 52 27 0 3 -11 13 -23
22 -19 14 -26 15 -41 4z"></path>
<path class="node" id="node115" d="M317 2342 c-24 -26 -21 -41 9 -48 17 -4 31 -1 42 9 14 15 14 18 -3
37 -22 25 -28 25 -48 2z"></path>
<path class="node" id="node116" d="M431 2339 c-19 -16 -21 -22 -11 -34 15 -18 51 -20 68 -3 17 17 15 24
-11 41 -21 13 -25 13 -46 -4z"></path>
<path class="node" id="node117" d="M665 2340 c-17 -19 -17 -22 -3 -37 11 -11 25 -13 43 -9 31 8 31 32
-1 52 -18 13 -23 12 -39 -6z"></path>
<path class="node" id="node118" d="M783 2341 c-15 -13 -18 -22 -11 -34 11 -20 49 -22 66 -5 17 17 15 24
-11 41 -20 13 -25 13 -44 -2z"></path>
<path class="node" id="node119" d="M900 2340 c-20 -15 -22 -20 -11 -34 16 -19 52 -21 69 -4 17 17 15 24
-11 41 -21 14 -25 13 -47 -3z"></path>
<path class="node" id="node120" d="M1019 2339 c-22 -17 -23 -19 -7 -35 11 -11 25 -15 41 -10 34 8 39 28
13 48 -21 15 -24 15 -47 -3z"></path>
<path class="node" id="node121" d="M1135 2340 c-15 -16 -15 -22 -5 -35 16 -19 44 -19 64 1 15 14 14 17
-8 35 -30 23 -29 23 -51 -1z"></path>
<path class="node" id="node122" d="M1374 2341 c-16 -13 -19 -22 -12 -34 11 -21 51 -22 68 -2 25 30 -24
62 -56 36z"></path>
<path class="node" id="node123" d="M1491 2339 c-19 -16 -21 -22 -11 -34 15 -18 51 -20 68 -3 17 17 15
24 -11 41 -21 13 -25 13 -46 -4z"></path>
<path class="node" id="node124" d="M1610 2340 c-20 -15 -22 -20 -11 -34 18 -21 58 -20 70 2 7 13 4 21
-13 34 -21 15 -24 15 -46 -2z"></path>
<path class="node" id="node125" d="M1727 2342 c-24 -26 -21 -41 9 -48 17 -4 31 -1 42 10 15 14 14 17 -6
36 -26 24 -25 24 -45 2z"></path>
<path class="node" id="node126" d="M1960 2340 c-20 -15 -22 -20 -11 -34 18 -21 58 -20 70 2 7 13 4 21
-13 34 -21 15 -24 15 -46 -2z"></path>
<path class="node" id="node127" d="M545 2336 c-16 -12 -17 -16 -6 -30 17 -21 45 -20 66 1 16 16 16 17
-1 30 -23 17 -35 16 -59 -1z"></path>
<path class="node" id="node128" d="M1252 2338 c-19 -19 -14 -37 14 -44 35 -9 63 18 44 40 -15 19 -41 21
-58 4z"></path>
<path class="node" id="node129" d="M1837 2339 c-13 -8 -15 -14 -7 -30 13 -23 53 -25 71 -3 11 14 10 18
-6 30 -22 16 -34 17 -58 3z"></path>
<path class="node" id="node130" d="M2076 2337 c-25 -18 -11 -47 24 -47 31 0 47 25 29 46 -14 17 -30 18
-53 1z"></path>
<path class="node" id="node131" d="M372 2270 c-20 -17 -21 -20 -6 -34 16 -17 33 -20 58 -10 23 9 20 29
-7 47 -20 13 -25 13 -45 -3z"></path>
<path class="node" id="node132" d="M490 2270 c-20 -15 -22 -20 -11 -34 16 -19 52 -21 69 -4 17 17 15 24
-11 41 -21 14 -25 13 -47 -3z"></path>
<path class="node" id="node133" d="M610 2270 c-20 -15 -22 -20 -11 -34 16 -19 52 -21 69 -4 17 17 15 24
-11 41 -21 14 -25 13 -47 -3z"></path>
<path class="node" id="node134" d="M1075 2274 c-15 -11 -17 -18 -9 -32 15 -24 48 -26 69 -6 16 16 16 18
-7 35 -28 22 -28 22 -53 3z"></path>
<path class="node" id="node135" d="M1779 2269 c-23 -19 -24 -20 -5 -34 24 -18 48 -19 64 -3 17 17 15 24
-11 41 -21 14 -25 13 -48 -4z"></path>
<path class="node" id="node136" d="M1900 2270 c-20 -15 -22 -20 -11 -34 16 -19 52 -21 69 -4 17 17 15
24 -11 41 -21 14 -25 13 -47 -3z"></path>
<path class="node" id="node137" d="M252 2268 c-28 -28 4 -57 48 -43 33 11 17 55 -20 55 -9 0 -21 -5 -28
-12z"></path>
<path class="node" id="node138" d="M720 2264 c-19 -22 9 -49 44 -40 31 8 34 31 7 46 -27 14 -36 13 -51
-6z"></path>
<path class="node" id="node139" d="M840 2265 c-7 -8 -10 -22 -6 -30 7 -20 50 -19 67 1 11 14 10 18 -6
30 -24 18 -39 18 -55 -1z"></path>
<path class="node" id="node140" d="M955 2266 c-16 -12 -17 -16 -6 -30 7 -9 24 -16 36 -16 12 0 29 7 36
16 11 14 10 18 -6 30 -10 8 -24 14 -30 14 -6 0 -20 -6 -30 -14z"></path>
<path class="node" id="node141" d="M1190 2264 c-11 -12 -11 -18 3 -31 21 -21 67 -10 67 16 0 31 -48 42
-70 15z"></path>
<path class="node" id="node142" d="M1306 2267 c-17 -13 -17 -14 -1 -30 20 -21 49 -22 65 -2 10 12 10 18
0 30 -15 19 -40 19 -64 2z"></path>
<path class="node" id="node143" d="M1427 2269 c-13 -8 -15 -14 -7 -30 13 -23 53 -25 71 -3 11 14 10 18
-6 30 -22 16 -34 17 -58 3z"></path>
<path class="node" id="node144" d="M1545 2266 c-16 -12 -17 -16 -6 -30 18 -21 58 -20 70 2 7 14 5 21
-10 30 -24 15 -31 15 -54 -2z"></path>
<path class="node" id="node145" d="M1662 2268 c-28 -28 4 -57 48 -43 33 11 17 55 -20 55 -9 0 -21 -5
-28 -12z"></path>
<path class="node" id="node146" d="M2014 2266 c-18 -14 -18 -16 -2 -32 11 -11 24 -15 42 -10 28 7 33 25
14 44 -16 16 -30 15 -54 -2z"></path>
<path class="node" id="node147" d="M2132 2268 c-17 -17 -15 -35 4 -42 23 -9 24 -8 24 24 0 32 -9 37 -28
18z"></path>
<path class="node" id="node148" d="M190 2244 c0 -8 5 -12 10 -9 6 3 10 10 10 16 0 5 -4 9 -10 9 -5 0
-10 -7 -10 -16z"></path>
<path class="node" id="node149" d="M203 2203 c-7 -2 -13 -13 -13 -24 0 -15 7 -19 35 -19 36 0 46 15 23
38 -13 13 -24 14 -45 5z"></path>
<path class="node" id="node150" d="M317 2203 c-28 -7 -16 -38 17 -41 39 -5 57 15 32 34 -11 8 -22 13
-25 13 -3 -1 -14 -3 -24 -6z"></path>
<path class="node" id="node151" d="M428 2199 c-27 -15 -10 -39 27 -39 41 0 55 18 30 37 -22 15 -34 16
-57 2z"></path>
<path class="node" id="node152" d="M545 2197 c-25 -19 -11 -37 30 -37 38 0 54 24 25 40 -25 13 -33 13
-55 -3z"></path>
<path class="node" id="node153" d="M667 2203 c-33 -9 -15 -38 26 -41 39 -3 49 12 25 36 -12 12 -20 13
-51 5z"></path>
<path class="node" id="node154" d="M775 2197 c-25 -19 -11 -37 30 -37 39 0 52 14 35 35 -15 19 -41 19
-65 2z"></path>
<path class="node" id="node155" d="M895 2197 c-25 -19 -11 -37 30 -37 19 0 37 5 41 12 7 11 -21 38 -41
38 -6 0 -19 -6 -30 -13z"></path>
<path class="node" id="node156" d="M1018 2199 c-33 -19 -21 -39 22 -39 41 0 52 14 28 38 -14 14 -27 15
-50 1z"></path>
<path class="node" id="node157" d="M1137 2203 c-33 -9 -15 -38 26 -41 31 -3 37 0 37 16 0 11 -7 23 -16
26 -17 6 -19 6 -47 -1z"></path>
<path class="node" id="node158" d="M1258 2199 c-33 -19 -21 -39 22 -39 44 0 55 21 21 40 -23 12 -22 12
-43 -1z"></path>
<path class="node" id="node159" d="M1365 2197 c-25 -19 -11 -37 30 -37 19 0 37 5 41 12 7 11 -21 38 -41
38 -6 0 -19 -6 -30 -13z"></path>
<path class="node" id="node160" d="M1485 2197 c-25 -19 -11 -37 30 -37 19 0 37 5 41 12 7 11 -21 38 -41
38 -6 0 -19 -6 -30 -13z"></path>
<path class="node" id="node161" d="M1605 2197 c-25 -19 -11 -37 30 -37 42 0 55 27 19 40 -31 12 -27 13
-49 -3z"></path>
<path class="node" id="node162" d="M1723 2203 c-7 -2 -13 -13 -13 -24 0 -15 7 -19 34 -19 41 0 56 18 31
37 -19 13 -31 15 -52 6z"></path>
<path class="node" id="node163" d="M1842 2198 c-22 -22 -13 -38 22 -38 41 0 56 18 31 37 -23 16 -37 17
-53 1z"></path>
<path class="node" id="node164" d="M1955 2197 c-25 -19 -10 -37 31 -37 27 0 34 4 34 19 0 17 -18 31 -39
31 -4 0 -15 -6 -26 -13z"></path>
<path class="node" id="node165" d="M2075 2197 c-24 -18 -11 -37 25 -37 36 0 49 19 25 37 -11 7 -22 13
-25 13 -3 0 -14 -6 -25 -13z"></path>
<path class="node" id="node166" d="M190 1665 l0 -395 979 0 c882 0 979 2 985 16 3 8 6 186 5 395 l0 379
-985 0 -984 0 0 -395z m480 334 c51 -18 96 -50 114 -80 21 -35 20 -36 -9 -43
l-25 -6 0 -170 c0 -160 -1 -170 -19 -170 -24 0 -31 19 -31 81 l0 49 -70 0 -70
0 0 -70 c0 -63 -2 -70 -20 -70 -17 0 -20 7 -20 48 0 88 -4 92 -76 92 l-64 0 0
-68 c0 -64 -2 -70 -25 -80 l-25 -12 0 185 0 185 -25 0 c-29 0 -31 10 -10 50
42 81 245 124 375 79z m643 -5 c57 -19 120 -75 115 -101 -2 -10 -10 -18 -18
-18 -13 0 -16 -30 -20 -183 -3 -100 -7 -183 -10 -184 -3 -1 -15 1 -27 4 -21 6
-23 12 -23 77 l0 71 -65 0 -65 0 0 -74 c0 -76 -6 -91 -34 -80 -13 5 -16 22
-16 80 l0 74 -70 0 -69 0 -3 -87 c-3 -83 -4 -88 -25 -91 l-23 -3 0 195 c0 183
-1 196 -18 196 -27 0 -32 8 -20 41 31 89 243 134 391 83z m587 10 c76 -17 133
-52 154 -93 16 -31 13 -41 -15 -41 -17 0 -19 -14 -21 -167 -3 -160 -4 -168
-23 -168 -18 0 -20 8 -23 63 l-3 62 -69 0 -70 0 0 -73 c0 -72 -10 -97 -37 -97
-10 0 -13 22 -13 85 l0 85 -70 0 -70 0 0 -59 c0 -50 -3 -59 -19 -64 -11 -3
-22 -2 -25 1 -3 3 -6 81 -6 174 l0 168 -22 -3 c-18 -1 -22 2 -20 18 8 45 77
92 161 111 77 17 115 16 191 -2z m-1196 -492 c18 10 46 -5 46 -26 0 -6 10 -16
23 -21 18 -8 21 -17 19 -48 -2 -21 -7 -49 -12 -63 l-10 -24 -229 0 c-258 0
-242 -5 -255 76 -8 45 13 80 41 70 8 -3 22 1 30 10 9 9 25 13 36 10 12 -3 27
0 34 5 8 8 33 7 80 0 60 -9 72 -8 103 8 30 16 38 17 56 6 14 -9 26 -10 38 -3z
m605 -6 c10 -11 32 -19 79 -27 34 -5 44 -22 38 -65 -12 -90 4 -85 -259 -82
l-232 3 -11 53 c-11 49 -11 53 8 63 11 6 33 8 49 5 16 -3 29 -1 29 4 0 14 38
22 57 12 12 -7 24 -5 41 6 19 12 30 13 53 5 22 -9 31 -8 40 3 6 8 20 14 30 14
11 0 19 5 19 10 0 15 46 12 59 -4z m363 -3 c11 -9 18 -11 18 -5 0 21 58 14 65
-7 8 -27 63 -34 76 -9 5 10 19 18 29 18 11 0 20 4 20 10 0 5 25 8 58 6 52 -3
63 -8 95 -40 31 -31 35 -39 27 -63 -4 -16 -11 -40 -14 -55 l-6 -28 -235 0
-234 0 -11 43 c-6 23 -13 50 -16 59 -3 11 5 23 23 35 15 10 34 26 41 35 16 22
40 23 64 1z"></path>
<path class="node" id="node167" d="M403 1873 c-22 -4 -23 -9 -23 -94 l0 -89 68 0 68 0 0 84 c-1 46 -3
86 -6 89 -8 8 -84 15 -107 10z"></path>
<path class="node" id="node168" d="M573 1873 c-9 -3 -13 -32 -13 -94 l0 -89 70 0 70 0 0 90 0 90 -44 0
c-24 0 -50 2 -58 4 -7 3 -19 2 -25 -1z"></path>
<path class="node" id="node169" d="M1223 1873 c-22 -4 -23 -9 -23 -94 l0 -89 65 0 65 0 0 90 c0 65 -4
90 -12 91 -56 5 -76 5 -95 2z"></path>
<path class="node" id="node170" d="M1010 1780 l0 -91 68 3 67 3 0 85 0 85 -67 3 -68 3 0 -91z"></path>
<path class="node" id="node171" d="M1640 1783 l0 -93 70 0 70 0 0 90 c0 101 9 92 -92 94 l-48 1 0 -92z"></path>
<path class="node" id="node172" d="M1858 1872 l-28 -3 0 -90 0 -89 70 0 71 0 -3 92 -3 92 -40 0 c-22 1
-52 0 -67 -2z"></path>
<path class="node" id="node173" d="M2580 1511 c-68 -21 -116 -61 -158 -132 -17 -28 -22 -52 -22 -109 0
-89 32 -155 98 -206 121 -92 307 -50 377 87 23 43 30 129 16 186 -33 128 -184
212 -311 174z m20 -52 c7 -12 8 -33 4 -52 -4 -18 -6 -42 -5 -54 3 -30 -24 -31
-39 -2 -9 15 -9 28 0 48 6 16 8 40 4 54 -5 21 -2 27 10 27 8 0 20 -9 26 -21z
m70 1 c8 -15 8 -30 0 -54 -6 -18 -8 -40 -5 -48 9 -22 -12 -33 -31 -17 -11 9
-14 22 -9 43 3 17 6 46 6 64 -1 37 22 44 39 12z m65 -4 c13 -20 14 -29 5 -46
-6 -12 -10 -33 -8 -48 2 -21 -1 -27 -17 -27 -18 0 -20 7 -20 65 0 36 1 68 3
73 6 14 22 7 37 -17z m98 -155 c17 -17 -14 -82 -58 -126 l-43 -41 20 -24 20
-25 -117 -3 c-65 -1 -120 0 -123 3 -3 3 2 13 11 23 23 26 21 35 -13 60 -43 33
-85 123 -66 143 9 8 360 -1 369 -10z"></path>
<path class="node" id="node174" d="M2255 1341 c-10 -9 -4 -88 9 -131 8 -28 20 -46 31 -48 14 -3 16 1 9
30 -4 18 -6 60 -6 93 2 55 0 61 -19 61 -11 0 -22 -2 -24 -5z"></path>
<path class="node" id="node175" d="M150 1174 c-6 -16 -13 -36 -16 -44 -3 -8 -12 -44 -20 -80 -8 -36 -21
-88 -28 -117 -18 -65 -12 -89 25 -102 32 -11 54 -6 82 17 15 13 17 35 17 179
0 92 -4 163 -9 163 -5 0 -16 3 -25 6 -11 4 -19 -3 -26 -22z"></path>
<path class="node" id="node176" d="M264 1191 c-7 -7 -4 -326 4 -337 13 -21 52 -34 77 -28 49 12 55 35
55 206 0 155 0 158 -22 163 -25 5 -107 2 -114 -4z"></path>
<path class="node" id="node177" d="M450 1031 c0 -191 4 -205 65 -205 62 0 66 14 63 203 l-3 165 -62 2
-63 2 0 -167z"></path>
<path class="node" id="node178" d="M650 1190 c-12 -8 -15 -37 -13 -172 3 -182 7 -192 69 -192 60 0 65
15 62 204 l-3 165 -50 3 c-27 1 -57 -2 -65 -8z"></path>
<path class="node" id="node179" d="M824 1191 c-2 -2 -4 -75 -4 -160 0 -170 6 -193 55 -205 25 -6 64 7
77 28 4 6 8 86 8 177 l0 165 -66 0 c-36 -1 -68 -3 -70 -5z"></path>
<path class="node" id="node180" d="M1017 1194 c-4 -4 -7 -81 -7 -170 l0 -163 27 -21 c32 -25 69 -20 96
12 15 17 17 42 17 174 0 151 0 155 -22 163 -30 10 -102 13 -111 5z"></path>
<path class="node" id="node181" d="M1205 1192 c-3 -3 -5 -81 -5 -172 0 -186 3 -194 65 -194 63 0 66 7
63 198 l-3 171 -57 1 c-32 0 -60 -2 -63 -4z"></path>
<path class="node" id="node182" d="M1442 1193 l-52 -4 2 -172 3 -172 26 -12 c35 -17 87 0 94 30 10 39 1
330 -10 332 -5 0 -34 -1 -63 -2z"></path>
<path class="node" id="node183" d="M1588 1193 c-16 -4 -18 -20 -18 -163 0 -138 2 -161 18 -181 23 -28
73 -30 102 -4 18 17 20 30 20 180 l0 162 -37 7 c-41 6 -58 6 -85 -1z"></path>
<path class="node" id="node184" d="M1765 1191 c-3 -2 -5 -77 -5 -166 0 -185 5 -199 65 -199 27 0 43 6
57 24 17 21 18 38 16 176 -2 84 -7 156 -11 161 -9 8 -114 12 -122 4z"></path>
<path class="node" id="node185" d="M1957 1193 c-4 -3 -7 -79 -7 -168 0 -183 5 -199 63 -199 65 0 67 7
67 195 0 128 -3 169 -12 170 -7 0 -34 3 -59 5 -25 2 -48 1 -52 -3z"></path>
<path class="node" id="node186" d="M2142 1023 l3 -178 28 -13 c60 -29 113 23 89 86 -6 15 -23 79 -38
142 -26 110 -42 140 -71 140 -11 0 -13 -35 -11 -177z"></path>


<path class="node" id="node189" d="M973 773 c-10 -4 -13 -77 -13 -319 l0 -314 -362 2 -363 3 -3 314 c-2
279 -4 312 -18 307 -9 -3 -18 -6 -20 -6 -2 0 -4 -148 -4 -330 l0 -330 385 0
c378 0 385 0 385 20 0 11 5 20 10 20 6 0 10 13 10 29 0 16 7 34 15 41 14 11
16 51 15 281 -2 269 -5 294 -37 282z"></path>
<path class="node" id="node190" d="M1347 774 c-11 -12 -8 -564 3 -564 6 0 10 -13 10 -29 0 -17 5 -33 10
-36 7 -4 9 98 8 311 -3 302 -7 342 -31 318z"></path>
<path class="node" id="node191" d="M2110 456 l0 -316 -360 0 c-353 0 -360 0 -360 -20 0 -20 7 -20 379
-20 329 0 380 2 385 15 9 25 6 645 -4 645 -4 0 -15 3 -24 6 -14 6 -16 -26 -16
-310z"></path>
<path class="node" id="node192" d="M310 480 l0 -270 290 0 290 0 0 270 0 270 -290 0 -290 0 0 -270z
m182 238 c2 -7 4 -60 3 -118 l0 -105 -82 0 c-46 0 -83 3 -83 8 0 4 0 57 0 117
l0 110 79 0 c54 0 80 -4 83 -12z m188 -108 l0 -120 -80 0 -80 0 0 28 c-1 15
-2 67 -3 115 -2 48 -1 90 2 92 2 3 40 5 83 5 l78 0 0 -120z m190 0 l0 -121
-82 3 -83 3 -3 104 c-1 58 0 111 2 118 4 9 28 13 86 13 l80 0 0 -120z m-376
-250 c2 -58 1 -111 -2 -118 -3 -9 -27 -12 -82 -11 -92 2 -87 -7 -82 142 l3 98
81 -3 80 -3 2 -105z m186 -10 l0 -121 -80 3 -81 3 -5 99 c-7 139 -9 136 87
136 l79 0 0 -120z m190 0 l0 -121 -82 3 -83 3 -3 104 c-1 58 0 111 2 118 4 9
28 13 86 13 l80 0 0 -120z"></path>
<path class="node" id="node193" d="M1060 480 l0 -270 115 0 115 0 -2 268 -3 267 -112 3 -113 3 0 -271z
m208 128 l3 -118 -96 0 -95 0 0 120 0 121 93 -3 92 -3 3 -117z m2 -258 l0
-120 -95 0 -95 0 0 120 0 120 95 0 95 0 0 -120z"></path>
<path class="node" id="node194" d="M1130 585 c0 -22 4 -25 40 -25 36 0 40 3 40 25 0 23 -4 25 -40 25
-36 0 -40 -2 -40 -25z"></path>
<path class="node" id="node195" d="M1460 480 l0 -270 288 2 287 3 0 265 0 265 -287 3 -288 2 0 -270z
m180 130 l0 -120 -79 0 -80 0 -3 116 c-2 64 -1 118 1 120 2 2 40 4 83 4 l78 0
0 -120z m190 0 l0 -121 -82 3 -83 3 -3 104 c-1 58 0 111 2 118 4 9 28 13 86
13 l80 0 0 -120z m185 0 l0 -115 -82 -3 -83 -3 0 121 0 121 83 -3 82 -3 0
-115z m-375 -260 l0 -121 -82 3 c-46 2 -82 6 -80 11 1 4 2 57 2 117 l0 110 80
0 80 0 0 -120z m188 3 l-3 -118 -80 0 -80 0 -3 104 c-1 58 0 111 2 118 4 9 29
13 86 13 l81 0 -3 -117z m187 -3 l0 -115 -80 0 -80 0 -3 118 -3 118 83 -3 83
-3 0 -115z"></path>
<path class="node" id="node196" d="M1030 140 c0 -19 7 -20 140 -20 133 0 140 1 140 20 0 19 -7 20 -140
20 -133 0 -140 -1 -140 -20z"></path>
<path class="node" id="node197" d="M1010 70 c0 -19 7 -20 160 -20 153 0 160 1 160 20 0 19 -7 20 -160
20 -153 0 -160 -1 -160 -20z"></path>
</g>
</svg>